<svg xmlns="http://www.w3.org/2000/svg" xmlns:xlink="http://www.w3.org/1999/xlink" width="1000" zoomAndPan="magnify" viewBox="0 0 750 749.999995" height="1000" preserveAspectRatio="xMidYMid meet" version="1.0"><defs><g/></defs><rect x="-75" width="900" fill="#ffffff" y="-74.999999" height="899.999994" fill-opacity="1"/><rect x="-75" width="900" fill="#ede7c7" y="-74.999999" height="899.999994" fill-opacity="1"/><g fill="#5b0202" fill-opacity="1"><g transform="translate(181.852984, 459.397205)"><g><path d="M 114.765625 -189.265625 C 129.003906 -189.265625 142.269531 -186.753906 154.5625 -181.734375 C 166.851562 -176.722656 177.523438 -169.847656 186.578125 -161.109375 C 195.640625 -152.378906 202.757812 -142.109375 207.9375 -130.296875 C 213.113281 -118.484375 215.703125 -105.703125 215.703125 -91.953125 C 215.703125 -78.859375 213.070312 -66.566406 207.8125 -55.078125 C 202.5625 -43.597656 195.40625 -33.609375 186.34375 -25.109375 C 177.289062 -16.617188 166.613281 -9.90625 154.3125 -4.96875 C 142.019531 -0.0390625 128.835938 2.421875 114.765625 2.421875 C 100.691406 2.421875 87.507812 -0.0390625 75.21875 -4.96875 C 62.925781 -9.90625 52.25 -16.617188 43.1875 -25.109375 C 34.132812 -33.609375 26.976562 -43.597656 21.71875 -55.078125 C 16.457031 -66.566406 13.828125 -78.859375 13.828125 -91.953125 C 13.828125 -105.703125 16.414062 -118.484375 21.59375 -130.296875 C 26.769531 -142.109375 33.882812 -152.378906 42.9375 -161.109375 C 52 -169.847656 62.675781 -176.722656 74.96875 -181.734375 C 87.269531 -186.753906 100.535156 -189.265625 114.765625 -189.265625 Z M 114.765625 -10.921875 C 125.441406 -10.921875 135.023438 -12.78125 143.515625 -16.5 C 152.015625 -20.21875 159.296875 -25.554688 165.359375 -32.515625 C 171.421875 -39.472656 176.070312 -47.925781 179.3125 -57.875 C 182.550781 -67.820312 184.171875 -78.941406 184.171875 -91.234375 C 184.171875 -104.171875 182.550781 -115.851562 179.3125 -126.28125 C 176.070312 -136.71875 171.457031 -145.617188 165.46875 -152.984375 C 159.488281 -160.347656 152.210938 -166.007812 143.640625 -169.96875 C 135.066406 -173.9375 125.441406 -175.921875 114.765625 -175.921875 C 104.085938 -175.921875 94.460938 -173.9375 85.890625 -169.96875 C 77.316406 -166.007812 70.035156 -160.347656 64.046875 -152.984375 C 58.066406 -145.617188 53.457031 -136.71875 50.21875 -126.28125 C 46.988281 -115.851562 45.375 -104.171875 45.375 -91.234375 C 45.375 -78.941406 46.988281 -67.820312 50.21875 -57.875 C 53.457031 -47.925781 58.066406 -39.472656 64.046875 -32.515625 C 70.035156 -25.554688 77.316406 -20.21875 85.890625 -16.5 C 94.460938 -12.78125 104.085938 -10.921875 114.765625 -10.921875 Z M 114.765625 -10.921875 "/></g></g></g><g fill="#5b0202" fill-opacity="1"><g transform="translate(459.918628, 459.397205)"><g><path d="M 66.96875 -39.3125 C 66.96875 -33 67.25 -27.941406 67.8125 -24.140625 C 68.382812 -20.335938 69.554688 -17.34375 71.328125 -15.15625 C 73.109375 -12.976562 75.65625 -11.484375 78.96875 -10.671875 C 82.289062 -9.867188 86.703125 -9.382812 92.203125 -9.21875 L 92.203125 0 L 17.953125 0 L 17.953125 -9.21875 C 23.296875 -9.382812 27.625 -9.910156 30.9375 -10.796875 C 34.25 -11.679688 36.832031 -13.132812 38.6875 -15.15625 C 40.550781 -17.1875 41.765625 -20.019531 42.328125 -23.65625 C 42.898438 -27.289062 43.1875 -31.941406 43.1875 -37.609375 L 43.1875 -126.65625 C 43.1875 -136.039062 43.144531 -143.804688 43.0625 -149.953125 C 42.988281 -156.097656 42.707031 -160.140625 42.21875 -162.078125 C 41.40625 -165.640625 38.976562 -167.820312 34.9375 -168.625 C 30.894531 -169.4375 24.832031 -169.84375 16.75 -169.84375 L 16.75 -179.0625 C 24.664062 -179.382812 33.03125 -180.476562 41.84375 -182.34375 C 50.664062 -184.207031 59.039062 -186.515625 66.96875 -189.265625 Z M 66.96875 -39.3125 "/></g></g></g></svg>