<svg xmlns="http://www.w3.org/2000/svg" xmlns:xlink="http://www.w3.org/1999/xlink" width="1000" zoomAndPan="magnify" viewBox="0 0 750 749.999995" height="1000" preserveAspectRatio="xMidYMid meet" version="1.0"><defs><g/></defs><rect x="-75" width="900" fill="#ffffff" y="-74.999999" height="899.999994" fill-opacity="1"/><rect x="-75" width="900" fill="#ede7c7" y="-74.999999" height="899.999994" fill-opacity="1"/><g fill="#5b0202" fill-opacity="1"><g transform="translate(183.434799, 459.126528)"><g><path d="M 114.53125 -189.265625 C 129.082031 -189.265625 142.664062 -186.753906 155.28125 -181.734375 C 167.90625 -176.722656 178.867188 -169.847656 188.171875 -161.109375 C 197.472656 -152.378906 204.789062 -142.109375 210.125 -130.296875 C 215.46875 -118.484375 218.140625 -105.703125 218.140625 -91.953125 C 218.140625 -78.859375 215.425781 -66.566406 210 -55.078125 C 204.582031 -43.597656 197.222656 -33.609375 187.921875 -25.109375 C 178.617188 -16.617188 167.660156 -9.90625 155.046875 -4.96875 C 142.429688 -0.0390625 128.925781 2.421875 114.53125 2.421875 C 100.132812 2.421875 86.625 -0.0390625 74 -4.96875 C 61.382812 -9.90625 50.382812 -16.617188 41 -25.109375 C 31.625 -33.609375 24.265625 -43.597656 18.921875 -55.078125 C 13.585938 -66.566406 10.921875 -78.859375 10.921875 -91.953125 C 10.921875 -105.703125 13.585938 -118.484375 18.921875 -130.296875 C 24.265625 -142.109375 31.585938 -152.378906 40.890625 -161.109375 C 50.191406 -169.847656 61.148438 -176.722656 73.765625 -181.734375 C 86.378906 -186.753906 99.96875 -189.265625 114.53125 -189.265625 Z M 114.53125 -13.34375 C 123.90625 -13.34375 132.394531 -15.160156 140 -18.796875 C 147.601562 -22.441406 154.070312 -27.617188 159.40625 -34.328125 C 164.75 -41.046875 168.835938 -49.21875 171.671875 -58.84375 C 174.503906 -68.46875 175.921875 -79.265625 175.921875 -91.234375 C 175.921875 -103.847656 174.503906 -115.207031 171.671875 -125.3125 C 168.835938 -135.425781 164.75 -144.082031 159.40625 -151.28125 C 154.070312 -158.476562 147.601562 -163.976562 140 -167.78125 C 132.394531 -171.582031 123.90625 -173.484375 114.53125 -173.484375 C 104.976562 -173.484375 96.441406 -171.582031 88.921875 -167.78125 C 81.398438 -163.976562 74.96875 -158.476562 69.625 -151.28125 C 64.289062 -144.082031 60.207031 -135.425781 57.375 -125.3125 C 54.550781 -115.207031 53.140625 -103.847656 53.140625 -91.234375 C 53.140625 -79.265625 54.550781 -68.46875 57.375 -58.84375 C 60.207031 -49.21875 64.289062 -41.046875 69.625 -34.328125 C 74.96875 -27.617188 81.398438 -22.441406 88.921875 -18.796875 C 96.441406 -15.160156 104.976562 -13.34375 114.53125 -13.34375 Z M 114.53125 -13.34375 "/></g></g></g><g fill="#5b0202" fill-opacity="1"><g transform="translate(460.766906, 459.126528)"><g><path d="M 73.28125 -39.796875 C 73.28125 -33.484375 73.5625 -28.425781 74.125 -24.625 C 74.6875 -20.820312 75.898438 -17.828125 77.765625 -15.640625 C 79.628906 -13.460938 82.296875 -11.96875 85.765625 -11.15625 C 89.242188 -10.351562 93.894531 -9.867188 99.71875 -9.703125 L 99.71875 0 L 8.5 0 L 8.5 -9.703125 C 14.800781 -9.867188 19.851562 -10.394531 23.65625 -11.28125 C 27.457031 -12.175781 30.367188 -13.632812 32.390625 -15.65625 C 34.410156 -17.675781 35.785156 -20.503906 36.515625 -24.140625 C 37.242188 -27.785156 37.609375 -32.4375 37.609375 -38.09375 L 37.609375 -126.171875 C 37.609375 -135.554688 37.566406 -143.320312 37.484375 -149.46875 C 37.398438 -155.613281 37.035156 -159.65625 36.390625 -161.59375 C 35.421875 -165.15625 32.628906 -167.335938 28.015625 -168.140625 C 23.410156 -168.953125 16.5 -169.359375 7.28125 -169.359375 L 7.28125 -179.0625 C 11.644531 -179.226562 16.695312 -179.59375 22.4375 -180.15625 C 28.1875 -180.726562 34.09375 -181.457031 40.15625 -182.34375 C 46.21875 -183.226562 52.160156 -184.238281 57.984375 -185.375 C 63.804688 -186.507812 68.90625 -187.804688 73.28125 -189.265625 Z M 73.28125 -39.796875 "/></g></g></g></svg>