<?xml version="1.0"?><svg version="1.2" baseProfile="tiny-ps" viewBox="0 0 300 300" xmlns="http://www.w3.org/2000/svg" xmlns:xlink="http://www.w3.org/1999/xlink"><title>Orion One</title><g><g fill="#ede7c7" transform="matrix(.1 0 0 -.1 0 300)"><path d="M0 1500V0h3000v3000H0V1500z"/></g><g fill="#d2bda3" transform="matrix(.1 0 0 -.1 0 300)"><path d="M1046 1900c-105-38-185-106-231-197l-26-53-10-58-11-59 11-58c6-32 21-79 33-104l22-46 51-51 50-50 56-27c70-33 128-46 199-47h56l59 15c32 9 80 28 107 42l48 26 46 49 45 49 27 57 27 57v180l-31 65-31 65-47 47-47 47-67 33-67 32-105 3-105 3-59-20zm239-69c51-24 88-63 117-126l23-50v-240l-24-53-24-53-39-33-39-34-44-12-45-13-44 5-45 5-46 27-45 27-25 37-24 37-17 65-17 65 6 84 6 83 29 63 30 62 34 26c47 36 75 46 138 46l55 1 40-19zm735 72c-47-8-100-16-117-19l-33-5v-36l46-7c26-3 53-11 60-17l14-11v-546l-18-22-18-23-40-6-39-6-3-23-3-22h382l-3 22-3 23-38 6c-21 3-43 11-50 18l-12 12-3 339-3 340-17-1c-9-1-55-8-102-16z"/></g><g fill="#b28a77" transform="matrix(.1 0 0 -.1 0 300)"><path d="M1049 1897c-84-29-142-68-190-129l-38-48-21-57-22-58 4-90 4-90 27-51 26-51 46-46 46-46 62-31 62-30 60-11 60-11 55 6c81 10 150 34 211 75l53 36 38 50 38 50 17 50 18 50-1 75-1 75-22 57-22 58-51 55-50 55-75 37-76 37-96 4-96 3-66-24zm249-69 42-20 29-41c16-23 36-64 45-91l17-50v-87l1-88-16-56-17-56-37-41-37-41-40-18-40-19h-106l-33 14c-18 7-48 28-68 45l-35 31-23 52-23 53-5 91-5 92 21 68 21 69 32 38c68 83 173 103 277 55zm752 77c-36-7-91-16-122-20l-58-6v-36l51-5 51-5 9-14 9-14v-555l-20-20-20-20h-27c-16 0-34-4-42-9l-14-9 6-16 6-16h362l-3 23-3 22-32 3-33 3-15 22-15 21v666l-12-1c-7-1-42-7-78-14z"/></g><g fill="#8d5045" transform="matrix(.1 0 0 -.1 0 300)"><path d="M1080 1906c-25-6-67-23-93-36l-48-24-45-45-45-44-32-61-32-61v-100l1-100 21-47 22-47 43-47c72-78 148-118 261-134l57-8 68 9 67 9 62 30 62 31 45 43 45 44 26 52 26 52 9 54 9 54-10 61-10 61-24 47c-13 25-39 64-58 86l-35 40-53 32-54 32-60 16-59 15-61-1c-33 0-80-6-105-13zm219-75 40-21 26-34c36-47 61-118 70-193l7-62-12-69-11-68-30-52-29-52-41-27-41-27-65-4-64-4-44 17-45 17-40 45-40 46-15 50-15 51v90l1 91 18 52c44 127 126 188 243 178l47-4 40-20zm797 78c-17-4-74-14-128-20l-98-12v-37h41c22 0 49-5 60-10l19-11v-565l-15-21-15-21-40-7-40-7v-38h360v38l-32 6c-17 3-40 14-50 23l-18 16v677l-7-1c-5 0-21-5-37-10z"/></g><g fill="#5a0302" transform="matrix(.1 0 0 -.1 0 300)"><path d="m1093 1905-63-14-50-27-50-27-46-49-45-49-27-57-27-57v-180l33-67 33-67 47-42 47-42 65-31 65-30 115-1h115l67 32 67 32 51 47 50 46 27 57 28 56v200l-27 56-28 55-47 49-48 48-60 28c-103 49-183 58-292 34zm172-56 40-11 46-48 47-47 18-54 19-54v-220l-21-45c-42-92-105-142-194-155l-45-6-48 15c-26 8-62 25-80 39l-33 25-26 49-27 49-12 72-12 72 12 73 12 72 25 53 26 53 34 27c62 49 137 63 219 41zm765 46c-36-7-84-13-107-14l-43-1v-39l47-3 48-3 12-25 13-25v-490l-10-36-10-36-26-11c-13-7-36-12-49-12h-25v-30h360v27l-39 7-38 6-14 16-14 17-3 334-3 333-17-1c-9-1-46-7-82-14z"/></g></g></svg>